<?xml version="1.0" encoding="UTF-8" standalone="no"?><!DOCTYPE svg PUBLIC "-//W3C//DTD SVG 1.1//EN" "http://www.w3.org/Graphics/SVG/1.1/DTD/svg11.dtd"><svg width="100%" height="100%" viewBox="0 0 113 19" version="1.1" xmlns="http://www.w3.org/2000/svg" xmlns:xlink="http://www.w3.org/1999/xlink" xml:space="preserve" xmlns:serif="http://www.serif.com/" style="fill-rule:evenodd;clip-rule:evenodd;stroke-linejoin:round;stroke-miterlimit:1.41421;"><g><path d="M0.937,12.452c-0.511,0 -0.937,0.401 -0.937,0.914c0,0.465 0.426,0.866 0.92,0.866c0.528,0 0.972,-0.385 0.972,-0.866c0,-0.497 -0.444,-0.914 -0.955,-0.914Z" style="fill:#373c42;fill-rule:nonzero;"/><path d="M13.903,2.206c0,0 0,3.95 0,11.85c0,0 -0.694,0 -2.08,0c0,0 0,-0.384 0,-1.151c-0.461,0.48 -0.935,0.827 -1.423,1.041c-0.488,0.214 -1.051,0.321 -1.689,0.321c-0.882,0 -1.685,-0.203 -2.409,-0.61c-0.724,-0.408 -1.294,-0.969 -1.71,-1.684c-0.416,-0.716 -0.624,-1.507 -0.624,-2.374c0,-0.872 0.209,-1.673 0.628,-2.404c0.419,-0.731 0.99,-1.305 1.714,-1.723c0.724,-0.418 1.519,-0.627 2.384,-0.627c0.594,0 1.15,0.1 1.668,0.298c0.519,0.198 0.945,0.47 1.278,0.814l0,-3.751l2.263,0Zm-4.926,4.597c-0.766,0 -1.411,0.261 -1.935,0.784c-0.524,0.522 -0.786,1.169 -0.786,1.942c0,0.778 0.273,1.436 0.82,1.974c0.546,0.538 1.21,0.806 1.992,0.806c0.766,0 1.414,-0.263 1.943,-0.791c0.53,-0.527 0.795,-1.172 0.795,-1.934c0,-0.804 -0.266,-1.469 -0.799,-1.993c-0.532,-0.525 -1.209,-0.788 -2.03,-0.788Z" style="fill:#373c42;fill-rule:nonzero;"/><path d="M25.687,5.166c0,0 0,2.964 0,8.89c0,0 -0.691,0 -2.072,0c0,0 0,-0.384 0,-1.151c-0.455,0.485 -0.925,0.834 -1.41,1.045c-0.486,0.212 -1.061,0.317 -1.727,0.317c-0.91,0 -1.727,-0.197 -2.451,-0.591c-0.723,-0.394 -1.289,-0.944 -1.697,-1.649c-0.408,-0.704 -0.612,-1.498 -0.612,-2.381c0,-0.892 0.206,-1.695 0.616,-2.408c0.411,-0.713 0.982,-1.27 1.714,-1.672c0.733,-0.402 1.559,-0.603 2.48,-0.603c0.682,0 1.27,0.111 1.764,0.333c0.494,0.222 0.935,0.575 1.323,1.061l0,-1.191l2.072,0Zm-4.959,1.755c-0.788,0 -1.439,0.261 -1.952,0.783c-0.513,0.522 -0.769,1.185 -0.769,1.989c0,0.778 0.259,1.409 0.778,1.892c0.518,0.483 1.191,0.724 2.017,0.724c0.821,0 1.483,-0.245 1.985,-0.736c0.502,-0.491 0.753,-1.133 0.753,-1.927c0,-0.804 -0.262,-1.459 -0.786,-1.965c-0.524,-0.507 -1.2,-0.76 -2.026,-0.76Z" style="fill:#373c42;fill-rule:nonzero;"/><path d="M28.794,14.056c0,0 0,-2.316 0,-6.947c0,0 -0.369,0 -1.107,0c0,0 0,-0.648 0,-1.943c0,0 0.369,0 1.107,0c0,0 0,-0.986 0,-2.96c0,0 0.754,0 2.263,0c0,0 0,0.987 0,2.96c0,0 0.455,0 1.365,0c0,0 0,0.648 0,1.943c0,0 -0.455,0 -1.365,0c0,0 0,2.316 0,6.947c0,0 -0.754,0 -2.263,0Z" style="fill:#373c42;fill-rule:nonzero;"/><path d="M43.866,5.166c0,0 0,2.964 0,8.89c0,0 -0.69,0 -2.072,0c0,0 0,-0.384 0,-1.151c-0.455,0.485 -0.925,0.834 -1.41,1.045c-0.485,0.212 -1.061,0.317 -1.727,0.317c-0.909,0 -1.726,-0.197 -2.45,-0.591c-0.724,-0.394 -1.29,-0.944 -1.698,-1.649c-0.407,-0.704 -0.611,-1.498 -0.611,-2.381c0,-0.892 0.205,-1.695 0.616,-2.408c0.41,-0.713 0.981,-1.27 1.714,-1.672c0.732,-0.402 1.558,-0.603 2.479,-0.603c0.683,0 1.271,0.111 1.764,0.333c0.494,0.222 0.935,0.575 1.323,1.061l0,-1.191l2.072,0Zm-4.959,1.755c-0.788,0 -1.438,0.261 -1.951,0.783c-0.513,0.522 -0.77,1.185 -0.77,1.989c0,0.778 0.259,1.409 0.778,1.892c0.519,0.483 1.191,0.724 2.018,0.724c0.821,0 1.482,-0.245 1.984,-0.736c0.502,-0.491 0.753,-1.133 0.753,-1.927c0,-0.804 -0.262,-1.459 -0.786,-1.965c-0.524,-0.507 -1.199,-0.76 -2.026,-0.76Z" style="fill:#373c42;fill-rule:nonzero;"/><path d="M47.772,12.452c-0.511,0 -0.937,0.401 -0.937,0.914c0,0.465 0.426,0.866 0.92,0.866c0.528,0 0.971,-0.385 0.971,-0.866c0,-0.497 -0.443,-0.914 -0.954,-0.914Z" style="fill:#373c42;fill-rule:nonzero;"/><path d="M58.967,5.166c0,0 0.721,0 2.163,0c0,0 0,2.402 0,7.206c0,0.883 -0.081,1.615 -0.245,2.197c-0.164,0.582 -0.429,1.08 -0.795,1.492c-0.898,1.029 -2.183,1.543 -3.852,1.543c-1.154,0 -2.155,-0.248 -3.004,-0.744c-0.849,-0.496 -1.465,-1.191 -1.847,-2.083l2.571,0c0.333,0.344 0.679,0.588 1.04,0.732c0.36,0.143 0.804,0.215 1.331,0.215c0.843,0 1.484,-0.235 1.922,-0.705c0.439,-0.47 0.677,-1.182 0.716,-2.138c-0.444,0.491 -0.906,0.845 -1.385,1.061c-0.48,0.217 -1.053,0.325 -1.719,0.325c-0.887,0 -1.685,-0.201 -2.392,-0.603c-0.707,-0.402 -1.258,-0.962 -1.652,-1.68c-0.394,-0.718 -0.59,-1.528 -0.59,-2.432c0,-1.315 0.441,-2.409 1.323,-3.281c0.882,-0.872 1.991,-1.308 3.328,-1.308c1.353,0 2.382,0.444 3.087,1.331l0,-1.128Zm-2.862,1.755c-0.777,0 -1.402,0.249 -1.877,0.748c-0.474,0.498 -0.711,1.158 -0.711,1.977c0,0.81 0.24,1.456 0.72,1.939c0.479,0.483 1.124,0.724 1.934,0.724c0.821,0 1.476,-0.244 1.964,-0.732c0.488,-0.488 0.732,-1.142 0.732,-1.962c0,-0.804 -0.254,-1.454 -0.761,-1.95c-0.508,-0.496 -1.175,-0.744 -2.001,-0.744Z" style="fill:#373c42;fill-rule:nonzero;"/><path d="M68.439,4.963c0.899,0 1.731,0.209 2.497,0.626c0.765,0.418 1.37,0.986 1.814,1.704c0.443,0.718 0.665,1.497 0.665,2.338c0,0.835 -0.223,1.609 -0.67,2.322c-0.446,0.713 -1.055,1.277 -1.826,1.692c-0.771,0.415 -1.609,0.622 -2.513,0.622c-0.91,0 -1.751,-0.207 -2.525,-0.622c-0.774,-0.415 -1.386,-0.979 -1.835,-1.692c-0.449,-0.713 -0.674,-1.487 -0.674,-2.322c0,-0.637 0.132,-1.244 0.395,-1.821c0.264,-0.577 0.622,-1.073 1.074,-1.488c0.452,-0.415 0.991,-0.746 1.618,-0.991c0.627,-0.245 1.287,-0.368 1.98,-0.368Zm-0.091,1.958c-0.732,0 -1.363,0.265 -1.893,0.795c-0.53,0.53 -0.795,1.163 -0.795,1.899c0,0.742 0.267,1.376 0.799,1.903c0.533,0.528 1.173,0.791 1.922,0.791c0.755,0 1.401,-0.262 1.939,-0.787c0.538,-0.524 0.807,-1.155 0.807,-1.891c0,-0.763 -0.269,-1.405 -0.807,-1.927c-0.538,-0.522 -1.196,-0.783 -1.972,-0.783Z" style="fill:#373c42;fill-rule:nonzero;"/><path d="M84.019,5.166c0,0 0,2.964 0,8.89c0,0 -0.699,0 -2.096,0c0,0 0,-0.285 0,-0.854c-0.433,0.392 -0.851,0.667 -1.253,0.827c-0.402,0.159 -0.886,0.238 -1.452,0.238c-0.638,0 -1.209,-0.121 -1.714,-0.364c-0.505,-0.243 -0.912,-0.588 -1.223,-1.037c-0.244,-0.361 -0.416,-0.758 -0.516,-1.191c-0.1,-0.433 -0.15,-1.013 -0.15,-1.739l0,-4.77l2.272,0l0,4.347c0,0.616 0.036,1.098 0.108,1.445c0.072,0.348 0.194,0.62 0.366,0.819c0.327,0.355 0.766,0.532 1.315,0.532c0.394,0 0.745,-0.074 1.052,-0.223c0.308,-0.149 0.543,-0.359 0.704,-0.63c0.122,-0.199 0.206,-0.456 0.253,-0.772c0.048,-0.316 0.071,-0.758 0.071,-1.327l0,-4.191l2.263,0Z" style="fill:#373c42;fill-rule:nonzero;"/><path d="M89.639,14.056c0,0 -1.267,-2.963 -3.802,-8.89c0,0 0.84,0 2.521,0c0,0 0.727,1.964 2.18,5.89c0,0 0.716,-1.963 2.147,-5.89c0,0 0.854,0 2.563,0c0,0 -1.268,2.964 -3.803,8.89c0,0 -0.602,0 -1.806,0Z" style="fill:#373c42;fill-rule:nonzero;"/><path d="M96.441,12.453c-0.481,0 -0.881,0.4 -0.881,0.914c0,0.465 0.4,0.865 0.865,0.865c0.497,0 0.914,-0.384 0.914,-0.865c0,-0.498 -0.417,-0.914 -0.898,-0.914Z" style="fill:#373c42;fill-rule:nonzero;"/><path d="M99.45,5.831l1.862,0l-1.883,8.716c-0.491,2.251 -1.166,3.376 -2.046,3.376c-0.245,0 -0.409,-0.143 -0.409,-0.348c0,-0.061 0.021,-0.102 0.082,-0.204c0.082,-0.144 0.102,-0.226 0.102,-0.348c0,-0.45 -0.368,-0.798 -0.818,-0.798c-0.43,0 -0.757,0.389 -0.757,0.88c0,0.695 0.716,1.248 1.616,1.248c1.862,0 3.315,-2.046 4.215,-5.872l1.535,-6.65l2.271,0l0.122,-0.655l-2.23,0c0.614,-3.273 1.412,-4.726 2.558,-4.726c0.286,0 0.45,0.102 0.45,0.266c0,0.041 -0.021,0.102 -0.082,0.205c-0.102,0.163 -0.123,0.266 -0.123,0.429c0,0.491 0.307,0.819 0.757,0.819c0.471,0 0.88,-0.389 0.88,-0.839c0,-0.757 -0.757,-1.33 -1.78,-1.33c-1.003,0 -1.821,0.45 -2.578,1.412c-0.614,0.818 -1.043,1.759 -1.678,3.764l-1.923,0l-0.143,0.655Z" style="fill:#373c42;fill-rule:nonzero;"/><path d="M106.672,14.056c1.126,-3.58 1.473,-4.419 2.415,-5.995c0.716,-1.166 1.289,-1.8 1.636,-1.8c0.144,0 0.246,0.082 0.348,0.286c0.164,0.348 0.328,0.45 0.737,0.45c0.614,0 0.961,-0.368 0.961,-1.023c0,-0.654 -0.388,-1.064 -0.961,-1.064c-0.471,0 -1.044,0.307 -1.576,0.88c-0.859,0.86 -1.718,2.108 -2.046,2.906l-0.307,0.757l1.146,-4.502l-0.061,-0.041c-1.494,0.266 -1.719,0.307 -3.212,0.553l0,0.348c0.45,-0.082 0.532,-0.103 0.695,-0.103c0.45,0 0.716,0.205 0.716,0.573c0,0.266 -0.163,1.105 -0.327,1.719l-1.739,6.056l1.575,0Z" style="fill:#373c42;fill-rule:nonzero;"/></g></svg>